<svg width="81" height="38" viewBox="0 0 81 38" fill="none" xmlns="http://www.w3.org/2000/svg">
<path d="M0 10.4548V10.4113C0 9.45938 0.14907 8.61627 0.447209 7.88194C0.745348 7.14762 1.14287 6.52752 1.63977 6.02165C2.13666 5.51578 2.71086 5.13502 3.36235 4.87936C4.01384 4.62371 4.68741 4.49316 5.37203 4.49316C6.32165 4.49316 7.11669 4.68898 7.75162 5.08606C8.38655 5.48314 8.91105 5.95638 9.31961 6.50032V5.89654C9.31961 5.53754 9.4466 5.23293 9.70609 4.97727C9.96006 4.72706 10.2748 4.60195 10.6392 4.60195C11.0201 4.60195 11.3348 4.72706 11.5943 4.97727C11.8483 5.22749 11.9753 5.54298 11.9753 5.9183V14.9478C11.9753 15.3231 11.8483 15.6332 11.5943 15.8779C11.3403 16.1227 11.0256 16.2478 10.6612 16.2478C10.2803 16.2478 9.96558 16.1281 9.70609 15.8779C9.45212 15.6332 9.31961 15.3231 9.31961 14.9478V14.2352C8.89449 14.839 8.36446 15.3503 7.72953 15.7583C7.09461 16.1662 6.30509 16.3729 5.37203 16.3729C4.69845 16.3729 4.03592 16.2424 3.38995 15.9867C2.73846 15.7256 2.16427 15.3449 1.66737 14.8444C1.17047 14.3386 0.767432 13.7185 0.463772 12.9841C0.154591 12.2498 0 11.4067 0 10.4548ZM2.67221 10.4113V10.4548C2.67221 11.0042 2.76055 11.5046 2.93722 11.9561C3.1139 12.4076 3.35131 12.7938 3.66049 13.1093C3.96967 13.4247 4.32302 13.6695 4.72606 13.8436C5.1291 14.0176 5.55422 14.1047 6.00695 14.1047C6.44312 14.1047 6.86824 14.0176 7.2768 13.8436C7.68537 13.6695 8.04424 13.4247 8.35342 13.0984C8.6626 12.772 8.90553 12.3912 9.08772 11.9452C9.26992 11.4992 9.36378 11.0042 9.36378 10.4548V10.4113C9.36378 9.8619 9.26992 9.36147 9.08772 8.91C8.90553 8.45852 8.6626 8.07232 8.35342 7.75683C8.04424 7.44135 7.68537 7.19657 7.2768 7.02251C6.86824 6.84845 6.44312 6.76141 6.00695 6.76141C5.55422 6.76141 5.12358 6.84301 4.72606 7.01163C4.32302 7.17481 3.96967 7.41959 3.66049 7.73508C3.35131 8.05056 3.1139 8.43676 2.93722 8.88824C2.76055 9.34515 2.67221 9.85102 2.67221 10.4113Z" fill="#001858"/>
<path d="M14.0898 9.89436V9.85084C14.0898 9.00229 14.2334 8.24621 14.526 7.58259C14.8186 6.91898 15.2106 6.36416 15.6965 5.90724C16.1879 5.45577 16.751 5.1022 17.3859 4.85743C18.0209 4.61265 18.6779 4.48755 19.3459 4.48755C20.3232 4.48755 21.1348 4.67793 21.7697 5.05869C22.4046 5.43945 22.9512 5.89636 23.4039 6.42943V5.89092C23.4039 5.53192 23.5309 5.22731 23.7904 4.97166C24.0444 4.72144 24.3591 4.59634 24.7235 4.59634C25.1044 4.59634 25.4191 4.72144 25.6786 4.97166C25.9326 5.22187 26.0596 5.53736 26.0596 5.91268V13.7999C26.0596 15.8179 25.524 17.292 24.4474 18.2276C23.3708 19.1632 21.8359 19.631 19.8318 19.631C18.9981 19.631 18.2196 19.5439 17.4964 19.3699C16.7731 19.1958 16.0609 18.9456 15.3597 18.6138C14.8628 18.4289 14.6143 18.0807 14.6143 17.5749C14.6143 17.2866 14.7248 17.0364 14.9456 16.8188C15.1665 16.6012 15.4259 16.4924 15.7351 16.4924C15.8787 16.4924 16.0443 16.5305 16.2155 16.6012C16.74 16.8895 17.2976 17.1125 17.8828 17.2703C18.4681 17.428 19.0975 17.5096 19.7711 17.5096C20.9526 17.5096 21.8635 17.2159 22.4874 16.6338C23.1168 16.0518 23.4315 15.1761 23.4315 14.0066V13.12C22.9512 13.7401 22.3881 14.2459 21.7421 14.6321C21.0961 15.0346 20.3011 15.2305 19.3514 15.2305C18.6779 15.2305 18.0264 15.1108 17.3915 14.866C16.7565 14.6212 16.1934 14.2731 15.702 13.8162C15.2106 13.3647 14.8186 12.8045 14.5315 12.1409C14.2334 11.4772 14.0898 10.7266 14.0898 9.89436ZM16.6295 0.930146C16.6295 0.669052 16.7179 0.451474 16.8946 0.271973C17.0712 0.0924706 17.2921 0 17.5516 0C17.7835 0 17.9657 0.0489551 18.0871 0.152305C18.2086 0.255654 18.308 0.369883 18.3853 0.500429C18.5454 0.78872 18.7662 1.02806 19.0423 1.213C19.3183 1.39794 19.6938 1.49585 20.163 1.49585C20.6323 1.49585 21.0023 1.40338 21.2838 1.213C21.5599 1.02806 21.7807 0.78872 21.9408 0.500429C22.0126 0.369883 22.112 0.255654 22.239 0.152305C22.3604 0.0489551 22.5371 0 22.769 0C23.034 0 23.2493 0.0924706 23.426 0.271973C23.6027 0.451474 23.691 0.669052 23.691 0.930146C23.691 1.11509 23.6303 1.3381 23.5144 1.5992C23.1941 2.14858 22.7524 2.57286 22.1893 2.87203C21.6261 3.17664 20.9526 3.3235 20.163 3.3235C19.3735 3.3235 18.7 3.1712 18.1368 2.87203C17.5737 2.56742 17.132 2.14314 16.8117 1.5992C16.6903 1.3381 16.6295 1.11509 16.6295 0.930146ZM16.7621 9.8726C16.7621 10.335 16.8504 10.7592 17.0271 11.1454C17.2037 11.5371 17.4356 11.8634 17.7282 12.1409C18.0209 12.4128 18.3687 12.625 18.7717 12.7773C19.1748 12.9296 19.5999 13.0057 20.0526 13.0057C20.5219 13.0057 20.9581 12.9296 21.3666 12.7773C21.7752 12.625 22.1341 12.4128 22.4433 12.1409C22.7524 11.8689 22.9954 11.5371 23.1776 11.1454C23.3598 10.7592 23.4536 10.3295 23.4536 9.8726V9.82909C23.4536 9.36673 23.3598 8.94246 23.1776 8.55625C22.9954 8.17005 22.7524 7.83825 22.4433 7.56084C22.1341 7.28886 21.7752 7.07672 21.3666 6.92442C20.9581 6.77212 20.5164 6.69596 20.0526 6.69596C19.5999 6.69596 19.1693 6.77212 18.7717 6.92442C18.3687 7.07672 18.0209 7.28886 17.7172 7.56084C17.4191 7.83281 17.1817 8.16461 17.016 8.54538C16.8504 8.92614 16.7621 9.35585 16.7621 9.82909V9.8726Z" fill="#001858"/>
<path d="M28.9966 5.91791C28.9966 5.54259 29.118 5.23254 29.372 4.97688C29.6205 4.72667 29.9352 4.60156 30.3161 4.60156C30.6971 4.60156 31.0118 4.72667 31.2713 4.97688C31.5252 5.2271 31.6577 5.54259 31.6577 5.91791V14.9474C31.6577 15.3227 31.5308 15.6328 31.2713 15.8775C31.0173 16.1223 30.6971 16.2474 30.3161 16.2474C29.9517 16.2474 29.637 16.1278 29.3831 15.8775C29.1291 15.6328 28.9966 15.3227 28.9966 14.9474V5.91791Z" fill="#001858"/>
<path d="M45.5161 5.91791C45.5161 5.54259 45.6376 5.23254 45.8915 4.97688C46.14 4.72667 46.4547 4.60156 46.8357 4.60156C47.2166 4.60156 47.5313 4.72667 47.7908 4.97688C48.0448 5.2271 48.1773 5.54259 48.1773 5.91791V14.9474C48.1773 15.3227 48.0503 15.6328 47.7908 15.8775C47.5368 16.1223 47.2166 16.2474 46.8357 16.2474C46.4713 16.2474 46.1566 16.1278 45.9026 15.8775C45.6486 15.6328 45.5161 15.3227 45.5161 14.9474V5.91791Z" fill="#001858"/>
<path d="M0.320312 33.3111V24.2816C0.320312 23.9063 0.441777 23.5962 0.695747 23.3406C0.944196 23.0903 1.2589 22.9652 1.63985 22.9652C2.02081 22.9652 2.33551 23.0903 2.595 23.3406C2.84897 23.5908 2.97596 23.9063 2.97596 24.2816V24.8418C3.35692 24.3088 3.82621 23.8464 4.38936 23.4493C4.95251 23.0523 5.68682 22.8564 6.59228 22.8564C7.92286 22.8564 8.94426 23.2481 9.65096 24.0314C10.3577 24.8146 10.7165 25.8808 10.7165 27.2189V33.3111C10.7165 33.6864 10.5896 33.9964 10.3411 34.2412C10.0927 34.486 9.77795 34.6111 9.39699 34.6111C9.01604 34.6111 8.70134 34.4914 8.44184 34.2412C8.18787 33.9964 8.06089 33.6864 8.06089 33.3111V28.0185C8.06089 27.1101 7.84557 26.4193 7.41492 25.9461C6.98428 25.4728 6.37143 25.2335 5.58192 25.2335C4.7924 25.2335 4.15747 25.4783 3.68266 25.9678C3.20785 26.4574 2.97044 27.1536 2.97044 28.062V33.3111C2.97044 33.6864 2.84345 33.9964 2.58948 34.2412C2.33551 34.486 2.01529 34.6111 1.63433 34.6111C1.26994 34.6111 0.955239 34.4914 0.701268 34.2412C0.447298 33.9964 0.320312 33.6864 0.320312 33.3111Z" fill="#001858"/>
<path d="M28.1963 28.2577V28.2142C28.1963 27.3656 28.3398 26.6096 28.6325 25.9459C28.9251 25.2823 29.3171 24.7275 29.8029 24.2706C30.2943 23.8191 30.8575 23.4656 31.4924 23.2208C32.1273 22.976 32.7843 22.8509 33.4524 22.8509C34.4296 22.8509 35.2412 23.0413 35.8761 23.422C36.5111 23.8028 37.0576 24.2597 37.5104 24.7928V24.2597C37.5104 23.9007 37.6374 23.5961 37.8969 23.3404C38.1508 23.0902 38.4655 22.9651 38.8299 22.9651C39.2109 22.9651 39.5256 23.0902 39.7851 23.3404C40.039 23.5907 40.166 23.9061 40.166 24.2815V32.1687C40.166 34.1867 39.6305 35.6608 38.5539 36.5964C37.4773 37.532 35.9424 37.9998 33.9382 37.9998C33.1045 37.9998 32.3261 37.9127 31.6028 37.7387C30.8795 37.5646 30.1673 37.3144 29.4661 36.9826C28.9692 36.7976 28.7208 36.4495 28.7208 35.9437C28.7208 35.6554 28.8312 35.4051 29.0521 35.1876C29.2729 34.97 29.5324 34.8612 29.8416 34.8612C29.9851 34.8612 30.1508 34.8993 30.3219 34.97C30.8464 35.2583 31.404 35.4813 31.9893 35.639C32.5745 35.7968 33.2039 35.8784 33.8775 35.8784C35.059 35.8784 35.97 35.5846 36.5939 35.0026C37.2233 34.4206 37.538 33.5449 37.538 32.3754V31.4942C37.0576 32.1143 36.4945 32.6201 35.8485 33.0063C35.2026 33.3926 34.4075 33.5884 33.4579 33.5884C32.7843 33.5884 32.1328 33.4687 31.4979 33.2239C30.863 32.9792 30.2998 32.631 29.8085 32.1741C29.3171 31.7226 28.9251 31.1624 28.638 30.4988C28.3454 29.8406 28.1963 29.0899 28.1963 28.2577ZM30.7415 19.2881C30.7415 19.027 30.8299 18.8094 31.0065 18.6299C31.1832 18.4504 31.3985 18.3579 31.6635 18.3579C31.8954 18.3579 32.0776 18.4069 32.1991 18.5102C32.3205 18.6136 32.4199 18.7278 32.4972 18.8583C32.6573 19.1466 32.8782 19.386 33.1542 19.5709C33.4303 19.7558 33.8057 19.8538 34.275 19.8538C34.7443 19.8538 35.1142 19.7613 35.3958 19.5709C35.6719 19.386 35.8927 19.1466 36.0528 18.8583C36.1246 18.7278 36.224 18.6136 36.3509 18.5102C36.4724 18.4123 36.6546 18.3579 36.8865 18.3579C37.1515 18.3579 37.3668 18.4504 37.5435 18.6299C37.7202 18.8094 37.8085 19.027 37.8085 19.2881C37.8085 19.473 37.7478 19.696 37.6318 19.9571C37.3116 20.5065 36.8699 20.9308 36.3068 21.2299C35.7436 21.5345 35.0701 21.6814 34.2805 21.6814C33.491 21.6814 32.8174 21.5291 32.2543 21.2299C31.6911 20.9253 31.2495 20.5011 30.9292 19.9571C30.7967 19.7015 30.7415 19.4784 30.7415 19.2881ZM30.874 28.236C30.874 28.6983 30.9624 29.1226 31.139 29.5088C31.3157 29.9004 31.5476 30.2268 31.8402 30.5042C32.1328 30.7762 32.4807 30.9883 32.8837 31.1406C33.2867 31.2929 33.7119 31.3691 34.1646 31.3691C34.6339 31.3691 35.0701 31.2929 35.4786 31.1406C35.8872 30.9883 36.246 30.7762 36.5552 30.5042C36.8644 30.2322 37.1073 29.9004 37.2895 29.5088C37.4717 29.1226 37.5656 28.6929 37.5656 28.236V28.1924C37.5656 27.7301 37.4717 27.3058 37.2895 26.9196C37.1073 26.5334 36.8644 26.2016 36.5552 25.9242C36.246 25.6522 35.8872 25.4401 35.4786 25.2878C35.0701 25.1355 34.6284 25.0593 34.1646 25.0593C33.7119 25.0593 33.2812 25.1355 32.8837 25.2878C32.4807 25.4401 32.1328 25.6522 31.8292 25.9242C31.531 26.1962 31.2936 26.528 31.128 26.9087C30.9624 27.2895 30.874 27.7192 30.874 28.1924V28.236Z" fill="#001858"/>
<path d="M42.7773 24.2817C42.7773 23.9064 42.8988 23.5963 43.1528 23.3407C43.4012 23.0904 43.7159 22.9653 44.0969 22.9653C44.4778 22.9653 44.7925 23.0904 45.052 23.3407C45.306 23.5909 45.4385 23.9064 45.4385 24.2817V33.3112C45.4385 33.6865 45.3115 33.9965 45.052 34.2413C44.7981 34.4861 44.4778 34.6112 44.0969 34.6112C43.7325 34.6112 43.4178 34.4915 43.1638 34.2413C42.9098 33.9965 42.7773 33.6865 42.7773 33.3112V24.2817Z" fill="#001858"/>
<path d="M48.1714 19.9191C48.1714 19.5601 48.2929 19.2555 48.5468 18.9998C48.7953 18.7496 49.11 18.6245 49.4909 18.6245C49.8719 18.6245 50.1866 18.7496 50.4461 18.9998C50.7 19.25 50.8326 19.5601 50.8326 19.9191V33.311C50.8326 33.6864 50.7056 33.9964 50.4461 34.2412C50.1921 34.4859 49.8719 34.6111 49.4909 34.6111C49.1265 34.6111 48.8118 34.4914 48.5579 34.2412C48.3039 33.9964 48.1714 33.6864 48.1714 33.311V19.9191Z" fill="#001858"/>
<path d="M54.1123 19.9191C54.1123 19.5601 54.2338 19.2555 54.4877 18.9998C54.7362 18.7496 55.0509 18.6245 55.4318 18.6245C55.8128 18.6245 56.1275 18.7496 56.387 18.9998C56.641 19.25 56.7735 19.5601 56.7735 19.9191V33.311C56.7735 33.6864 56.6465 33.9964 56.387 34.2412C56.133 34.4859 55.8128 34.6111 55.4318 34.6111C55.0675 34.6111 54.7528 34.4914 54.4988 34.2412C54.2448 33.9964 54.1123 33.6864 54.1123 33.311V19.9191Z" fill="#001858"/>
<path d="M58.7612 28.8182V28.7746C58.7612 27.8227 58.9103 26.9796 59.2084 26.2453C59.5066 25.511 59.9041 24.8909 60.401 24.385C60.8979 23.8791 61.4721 23.4984 62.1236 23.2427C62.7751 22.9816 63.4431 22.8511 64.1277 22.8511C65.0774 22.8511 65.8724 23.0469 66.5073 23.444C67.1423 23.8411 67.6668 24.3143 68.0753 24.8582V24.2599C68.0753 23.9009 68.2023 23.5963 68.4618 23.3406C68.7158 23.0904 69.0305 22.9653 69.3949 22.9653C69.7758 22.9653 70.0905 23.0904 70.35 23.3406C70.604 23.5908 70.731 23.9063 70.731 24.2817V33.3111C70.731 33.6865 70.604 33.9965 70.35 34.2413C70.096 34.4861 69.7813 34.6112 69.4169 34.6112C69.036 34.6112 68.7213 34.4915 68.4618 34.2413C68.2078 33.9965 68.0753 33.6865 68.0753 33.3111V32.5986C67.6502 33.2023 67.1202 33.7137 66.4852 34.1216C65.8503 34.5296 65.0608 34.7363 64.1277 34.7363C63.4542 34.7363 62.7916 34.6057 62.1457 34.3501C61.4942 34.089 60.92 33.7082 60.4231 33.2078C59.9262 32.7019 59.5231 32.0818 59.2195 31.3475C58.9158 30.6077 58.7612 29.7701 58.7612 28.8182ZM61.439 28.7746V28.8182C61.439 29.3675 61.5273 29.868 61.704 30.3194C61.8807 30.7709 62.1181 31.1571 62.4272 31.4726C62.7364 31.7881 63.0898 32.0329 63.4928 32.2069C63.8958 32.381 64.321 32.468 64.7737 32.468C65.2099 32.468 65.635 32.381 66.0436 32.2069C66.4521 32.0329 66.811 31.7881 67.1202 31.4617C67.4294 31.1354 67.6723 30.7546 67.8545 30.3086C68.0367 29.8625 68.1305 29.3675 68.1305 28.8182V28.7746C68.1305 28.2253 68.0367 27.7248 67.8545 27.2733C67.6723 26.8219 67.4294 26.4357 67.1202 26.1202C66.811 25.8047 66.4521 25.5599 66.0436 25.3859C65.635 25.2118 65.2099 25.1248 64.7737 25.1248C64.321 25.1248 63.8903 25.2064 63.4928 25.375C63.0898 25.5382 62.7364 25.7829 62.4272 26.0984C62.1181 26.4139 61.8807 26.8001 61.704 27.2516C61.5273 27.7031 61.439 28.2144 61.439 28.7746Z" fill="#001858"/>
<path d="M24.9003 34.633C24.3316 34.633 23.8734 34.1815 23.8734 33.6213V30.499C23.8734 27.2082 21.8692 24.9127 18.9983 24.9127C17.7615 24.9127 16.6463 25.3424 15.8568 26.1257C15.0728 26.8981 14.6421 27.9806 14.6476 29.1664C14.6532 31.0158 16.1825 32.5171 18.0542 32.5171C18.0597 32.5171 18.0597 32.5171 18.0652 32.5171C18.7388 32.5171 19.3737 32.256 19.8485 31.7827C20.3233 31.3095 20.5828 30.6894 20.5828 30.0258C20.5773 29.0086 19.8651 28.209 18.921 28.1601C18.6228 28.1492 18.3357 28.2362 18.1535 28.3994C18.0155 28.5245 17.9492 28.6931 17.9492 28.9107C17.9492 28.9542 17.9603 29.3459 18.402 29.4002C18.9651 29.471 19.3682 29.9714 19.2964 30.5262C19.2246 31.081 18.7167 31.4781 18.1535 31.4074C16.6628 31.2279 15.8899 30.0095 15.8954 28.8998C15.9009 28.1329 16.1991 27.4312 16.7456 26.9253C17.3309 26.3814 18.1646 26.0931 19.0314 26.1366C21.0852 26.2399 22.6367 27.9098 22.6422 30.0149C22.6477 32.5007 20.6049 34.5297 18.0762 34.5405C18.0707 34.5405 18.0652 34.5405 18.0597 34.5405C16.6076 34.5405 15.2384 33.9857 14.2059 32.974C13.168 31.9622 12.5993 30.6078 12.5938 29.1718C12.5883 27.442 13.2287 25.8483 14.4047 24.6897C15.5862 23.5256 17.2149 22.8838 19.0038 22.8838C23.0176 22.8838 25.9328 26.0876 25.9328 30.4936V33.6158C25.9272 34.1761 25.4635 34.633 24.9003 34.633Z" fill="#6A62B0"/>
<path d="M74.3087 34.6656C73.7013 34.6656 73.21 34.1815 73.21 33.5832V29.7375C73.21 25.424 75.711 22.8457 79.9015 22.8457C80.5088 22.8457 81.0002 23.3298 81.0002 23.9282C81.0002 24.5265 80.5088 25.0106 79.9015 25.0106C76.9146 25.0106 75.4018 26.6044 75.4018 29.7429V33.5886C75.4018 34.1815 74.9105 34.6656 74.3087 34.6656Z" fill="#F0AA00"/>
<path d="M77.8697 34.6819C77.2624 34.6819 76.771 34.1978 76.771 33.5994V30.1454C76.771 26.6913 78.9573 26.4248 79.6309 26.4248C80.2382 26.4248 80.7296 26.9089 80.7296 27.5073C80.7296 28.1056 80.2382 28.5897 79.6309 28.5897C79.1892 28.5897 78.9684 29.1173 78.9684 30.1508V33.6049C78.9684 34.1978 78.477 34.6819 77.8697 34.6819Z" fill="#F0AA00"/>
<path d="M35.716 16.3779C35.1252 16.3779 34.6394 15.9156 34.6228 15.3336C34.5731 13.8595 35.0314 13.049 35.4013 12.4017C35.7105 11.8578 35.9313 11.4661 35.9037 10.5904C35.8761 9.71462 35.6276 9.33386 35.2853 8.81167C34.8768 8.18614 34.3688 7.4083 34.3191 5.9342C34.2695 4.46011 34.7277 3.64964 35.0976 3.00234C35.4068 2.4584 35.6276 2.06676 35.6 1.191C35.5835 0.592664 36.0583 0.0976744 36.6601 0.0759166C37.2785 0.0541588 37.7698 0.527391 37.7919 1.12029C37.8416 2.59438 37.3834 3.39942 37.0134 4.05215C36.7043 4.5961 36.4834 4.98774 36.511 5.86349C36.5386 6.73924 36.7871 7.11457 37.1294 7.64219C37.5379 8.26773 38.0459 9.04557 38.0956 10.5197C38.1453 11.9938 37.687 12.8042 37.3171 13.4515C37.0079 13.9955 36.7871 14.3871 36.8147 15.2629C36.8312 15.8612 36.3564 16.3562 35.7546 16.3779C35.7381 16.3779 35.727 16.3779 35.716 16.3779Z" fill="#00E1A8"/>
<path d="M40.4089 16.3779C39.8181 16.3779 39.3322 15.9156 39.3157 15.3336C39.266 13.8595 39.7242 13.049 40.0942 12.4017C40.4033 11.8578 40.6242 11.4661 40.5966 10.5904C40.569 9.71462 40.3205 9.33386 39.9782 8.81167C39.5697 8.18614 39.0617 7.4083 39.012 5.9342C38.9623 4.46011 39.4206 3.64964 39.7905 3.00234C40.0997 2.4584 40.3205 2.06676 40.2929 1.191C40.2764 0.592664 40.7512 0.0976744 41.353 0.0759166C41.9603 0.0541588 42.4627 0.527391 42.4848 1.12029C42.5345 2.59438 42.0762 3.39942 41.7063 4.05215C41.3971 4.5961 41.1763 4.98774 41.2039 5.86349C41.2315 6.73924 41.4799 7.12 41.8223 7.64219C42.2308 8.26773 42.7388 9.04557 42.7884 10.5197C42.8381 11.9938 42.3799 12.8042 42.01 13.4515C41.7008 13.9955 41.4799 14.3871 41.5076 15.2629C41.5241 15.8612 41.0493 16.3562 40.4475 16.3779C40.4309 16.3779 40.4199 16.3779 40.4089 16.3779Z" fill="#00E1A8"/>
</svg>
